<svg xmlns="http://www.w3.org/2000/svg" width="512" height="512" viewBox="0 0 512 512">
  <defs>
    <linearGradient id="gradient" x1="0%" y1="0%" x2="100%" y2="100%">
      <stop offset="0%" style="stop-color:#1db954;stop-opacity:1" />
      <stop offset="50%" style="stop-color:#1ed760;stop-opacity:1" />
      <stop offset="100%" style="stop-color:#17a144;stop-opacity:1" />
    </linearGradient>
  </defs>
  
  <!-- Background circle -->
  <circle cx="256" cy="256" r="240" fill="url(#gradient)" stroke="#000" stroke-width="16"/>
  
  <!-- Music note icon -->
  <path d="M256 128c-8.8 0-16 7.2-16 16v144c-11.7-5.3-25.6-8-40-8-35.3 0-64 21.5-64 48s28.7 48 64 48 64-21.5 64-48V208l80-20v72c-11.7-5.3-25.6-8-40-8-35.3 0-64 21.5-64 48s28.7 48 64 48 64-21.5 64-48V144c0-8.8-7.2-16-16-16h-32c-8.8 0-16 7.2-16 16z" fill="white"/>
</svg>
